<svg viewBox="0 0 96 96" xmlns="http://www.w3.org/2000/svg" xmlns:xlink="http://www.w3.org/1999/xlink" id="Icons_Receipt_LTR" overflow="hidden"><rect x="37.002" y="25" width="27" height="4" fill="#0070C0"/><rect x="37.002" y="40" width="17" height="4" fill="#0070C0"/><rect x="59.002" y="40" width="5" height="4" fill="#0070C0"/><rect x="37.002" y="50" width="17" height="4" fill="#0070C0"/><rect x="59.002" y="50" width="5" height="4" fill="#0070C0"/><rect x="37.002" y="60" width="17" height="4" fill="#0070C0"/><rect x="59.002" y="60" width="5" height="4" fill="#0070C0"/><path d="M77 73 77 20C76.9928 13.9278 72.0722 9.00716 66 9L19 9C12.9278 9.00716 8.00716 13.9278 8 20L8 37 24 37 24 73 14 73 14 87 87 87 87 73ZM66 15C68.7601 15.0033 70.9967 17.2399 71 20L71 78 30 78 30 20C30.0026 18.2617 29.5912 16.5478 28.8 15ZM14 31 14 20C14 17.2386 16.2386 15 19 15 21.7614 15 24 17.2386 24 20L24 31Z" fill="#0070C0"/></svg>