<svg viewBox="0 0 96 96" xmlns="http://www.w3.org/2000/svg" xmlns:xlink="http://www.w3.org/1999/xlink" id="Icons_ClipboardPartiallyCrossed_LTR" overflow="hidden"><path d="M40.061 33.061 37.939 30.939 35 33.879 32.061 30.939 29.939 33.061 32.879 36 29.939 38.939 32.061 41.061 35 38.121 37.939 41.061 40.061 38.939 37.121 36 40.061 33.061Z" fill="#BF9000"/><path d="M37.939 42.939 35 45.879 32.061 42.939 29.939 45.061 32.879 48 29.939 50.939 32.061 53.061 35 50.121 37.939 53.061 40.061 50.939 37.121 48 40.061 45.061 37.939 42.939Z" fill="#BF9000"/><path d="M73 82 23 82 23 20 34 20 34 26 62 26 62 20 73 20ZM48 12C49.6569 12 51 13.3431 51 15 51 16.6569 49.6569 18 48 18 46.3431 18 45 16.6569 45 15 44.9727 13.3704 46.2716 12.0273 47.9012 12 47.9341 11.9994 47.9671 11.9994 48 12ZM75 14 58 14 58 12C58 9.79086 56.2091 8 54 8L42 8C39.7909 8 38 9.79086 38 12L38 14 21 14C18.7909 14 17 15.7909 17 18L17 84C17 86.2091 18.7909 88 21 88L75 88C77.2091 88 79 86.2091 79 84L79 18C79 15.7909 77.2091 14 75 14Z" fill="#BF9000"/><rect x="50" y="34" width="17" height="4" fill="#BF9000"/><rect x="50" y="46" width="17" height="4" fill="#BF9000"/><rect x="50" y="58" width="17" height="4" fill="#BF9000"/><rect x="50" y="70" width="17" height="4" fill="#BF9000"/><rect x="31.5" y="56.5" width="7" height="7" fill="#BF9000"/><rect x="31.5" y="68.5" width="7" height="7" fill="#BF9000"/></svg>