<svg viewBox="0 0 96 96" xmlns="http://www.w3.org/2000/svg" xmlns:xlink="http://www.w3.org/1999/xlink" id="Icons_UserCrownFemale" overflow="hidden"><path d="M59.268 49.38C62.729 50.916 68.613 50.38 68.613 50.38 67.3544 48.7834 66.5838 46.8572 66.394 44.833 66.108 40.004 69.974 32.065 65.028 23.978L62.67 23.978C66.8148 32.0452 63.635 41.9449 55.5679 46.0896 55.4315 46.1597 55.2942 46.2278 55.156 46.294 56.2174 47.6806 57.64 48.7483 59.268 49.38Z" fill="#007BD0"/><path d="M48 45.952C55.9888 45.9632 62.4741 39.4961 62.4853 31.5073 62.489 28.8518 61.7617 26.2466 60.383 23.977L35.613 23.977C31.4653 30.8047 33.6379 39.702 40.4657 43.8497 42.7364 45.2291 45.3431 45.9565 48 45.952Z" fill="#007BD0"/><path d="M76.782 59.544C72.382 55.944 66.788 53.544 61.191 51.944 56.915 50.6349 52.4699 49.9611 47.998 49.944 43.531 50.0216 39.0943 50.6942 34.805 51.944 29.2152 53.5764 23.9432 56.1462 19.214 59.544 17.2405 61.0887 16.0657 63.4384 16.014 65.944L16.014 81.932 79.981 81.932 79.981 65.941C79.9285 63.4367 78.7542 61.0883 76.782 59.544Z" fill="#007BD0"/><path d="M36.781 49.38C38.4018 48.7522 39.8185 47.6904 40.876 46.311 32.6861 42.413 29.2069 32.6139 33.1048 24.424 33.1763 24.2739 33.25 24.1249 33.326 23.977L31.026 23.977C26.074 32.064 29.94 40 29.655 44.832 29.4643 46.8559 28.6938 48.7819 27.436 50.379 27.436 50.379 33.32 50.916 36.781 49.38Z" fill="#007BD0"/><path d="M31.38 21.977 30.432 2.976 39.216 9.363 47.999 2.976 56.783 9.363 65.566 2.976 64.618 21.977 31.38 21.977Z" fill="#007BD0"/></svg>