<svg viewBox="0 0 96 96" xmlns="http://www.w3.org/2000/svg" xmlns:xlink="http://www.w3.org/1999/xlink" id="Icons_SearchInventory" overflow="hidden"><path d="M58 19.438C57.7333 19.5713 57.471 19.714 57.213 19.866 52.3108 22.7583 49.732 28.4005 50.753 34L58 34Z" fill="#12A1C0"/><path d="M51.662 37C54.6637 43.8665 62.6635 46.9996 69.53 43.9979 70.0213 43.7831 70.4995 43.5394 70.962 43.268 70.974 43.26 70.986 43.251 70.998 43.244L70.998 37Z" fill="#12A1C0"/><path d="M52.147 11.243C52.294 11.157 52.447 11.083 52.595 11L35 11 35 34 40.651 34C39.7032 24.819 44.1946 15.928 52.147 11.243ZM38 14 42 14 42 18 38 18Z" fill="#12A1C0"/><path d="M71 54.663 70.71 54.17C68.5633 54.8 66.3372 55.1186 64.1 55.116 58.1238 55.1036 52.3731 52.8333 48 48.76L48 60 71 60Z" fill="#12A1C0"/><path d="M78.39 71.4 73.457 63 61 63 61 86 83 86 83 74.956C81.0615 74.4109 79.4094 73.1365 78.39 71.4ZM68 70 64 70 64 66 68 66Z" fill="#12A1C0"/><path d="M35 86 58 86 58 63 35 63ZM38 66 42 66 42 70 38 70Z" fill="#12A1C0"/><path d="M9 86 32 86 32 63 9 63ZM12 66 16 66 16 70 12 70Z" fill="#12A1C0"/><path d="M45 45.372C44.564 44.772 44.145 44.154 43.766 43.508 42.5735 41.4818 41.692 39.288 41.151 37L22 37 22 60 45 60ZM29 44 25 44 25 40 29 40Z" fill="#12A1C0"/><path d="M81.825 21.146C76.0798 11.3446 63.4769 8.05647 53.6755 13.8016 43.8742 19.5468 40.586 32.1498 46.3312 41.9511 51.5448 50.8456 62.5373 54.5069 72.043 50.515L74.569 54.815C73.8898 56.2602 73.9676 57.9475 74.777 59.324L80.977 69.874C82.3606 72.165 85.3394 72.9006 87.6304 71.517 89.8822 70.1571 90.6378 67.2491 89.333 64.965L83.133 54.415C82.325 53.0395 80.8913 52.1504 79.3 52.038L76.774 47.738C84.8667 41.3819 87.0236 30.0267 81.825 21.146ZM49.8 39.962C45.1635 32.0715 47.8014 21.9163 55.6919 17.2798 63.5824 12.6433 73.7376 15.2812 78.3741 23.1717 83.0106 31.0622 80.3727 41.2174 72.4822 45.8539 72.4821 45.8539 72.4821 45.854 72.482 45.854 64.5899 50.4791 54.4433 47.8434 49.8 39.962Z" fill="#12A1C0"/></svg>