<svg width="50" height="50" viewBox="0 0 50 50" fill="none" xmlns="http://www.w3.org/2000/svg">
<path d="M46.7005 21.7013C45.9721 21.7031 45.2648 21.9461 44.6891 22.3921C44.1133 22.8382 43.7015 23.4623 43.5178 24.167H35.3944C35.218 21.9836 34.358 19.9112 32.9366 18.2443L38.6854 12.4965C39.1853 12.8 39.7586 12.9613 40.3434 12.963C40.996 12.963 41.6339 12.7695 42.1764 12.4071C42.719 12.0446 43.1419 11.5294 43.3916 10.9267C43.6413 10.3239 43.7067 9.66063 43.5794 9.02074C43.4521 8.38086 43.1378 7.79308 42.6764 7.33175C42.215 6.87041 41.6271 6.55624 40.9871 6.42896C40.3471 6.30168 39.6837 6.367 39.0808 6.61667C38.4779 6.86635 37.9627 7.28915 37.6001 7.83162C37.2376 8.37409 37.0441 9.01187 37.0441 9.66429C37.0458 10.249 37.2071 10.8222 37.5106 11.322L31.7618 17.0697C30.0945 15.6486 28.0218 14.7888 25.838 14.6124V6.49053C26.6142 6.28796 27.2901 5.80953 27.7391 5.14476C28.1881 4.47998 28.3794 3.67442 28.2773 2.8788C28.1752 2.08318 27.7866 1.35203 27.1842 0.822154C26.5819 0.292282 25.8071 0 25.0048 0C24.2025 0 23.4277 0.292282 22.8253 0.822154C22.223 1.35203 21.8344 2.08318 21.7323 2.8788C21.6301 3.67442 21.8215 4.47998 22.2705 5.14476C22.7194 5.80953 23.3953 6.28796 24.1716 6.49053V14.6124C21.9878 14.7888 19.915 15.6486 18.2478 17.0697L12.4989 11.322C12.8025 10.8222 12.9638 10.249 12.9655 9.66429C12.9671 9.23087 12.8824 8.80147 12.7165 8.40105C12.5506 8.00063 12.3067 7.63719 11.999 7.33187C11.3713 6.73048 10.5355 6.39475 9.66614 6.39475C8.79676 6.39475 7.96098 6.73048 7.33327 7.33187C6.87189 7.7932 6.5577 8.38095 6.43041 9.02081C6.30313 9.66067 6.36846 10.3239 6.61816 10.9266C6.86787 11.5294 7.29071 12.0445 7.83325 12.407C8.37578 12.7695 9.01363 12.963 9.66614 12.963C10.251 12.9613 10.8242 12.8 11.3241 12.4965L17.073 18.2443C15.6516 19.9112 14.7916 21.9836 14.6152 24.167H6.49177C6.28917 23.3908 5.81064 22.7151 5.14574 22.2662C4.48084 21.8173 3.67512 21.626 2.87935 21.7281C2.08358 21.8302 1.35228 22.2187 0.822311 22.821C0.292338 23.4232 0 24.1979 0 25C0 25.8021 0.292338 26.5768 0.822311 27.179C1.35228 27.7813 2.08358 28.1698 2.87935 28.2719C3.67512 28.374 4.48084 28.1827 5.14574 27.7338C5.81064 27.2849 6.28917 26.6092 6.49177 25.833H14.6152C14.7916 28.0164 15.6516 30.0888 17.073 31.7557L11.3158 37.5118C10.6868 37.1569 9.96042 37.0131 9.24356 37.1016C8.52669 37.19 7.85712 37.5061 7.33327 38.0033C6.94957 38.3869 6.66642 38.8591 6.50889 39.3783C6.35137 39.8974 6.32433 40.4474 6.43018 40.9794C6.53602 41.5115 6.77148 42.0093 7.1157 42.4286C7.45992 42.848 7.90227 43.176 8.40357 43.3836C8.90487 43.5912 9.44964 43.672 9.98962 43.6188C10.5296 43.5656 11.0481 43.3801 11.4993 43.0787C11.9504 42.7772 12.3202 42.3692 12.576 41.8908C12.8317 41.4123 12.9655 40.8782 12.9655 40.3357C12.9638 39.751 12.8025 39.1778 12.4989 38.678L18.2478 32.9303C18.8501 33.4395 19.5067 33.8809 20.2057 34.2464C20.2429 34.2691 20.2819 34.2887 20.3224 34.3047C21.5229 34.9122 22.8304 35.28 24.1716 35.3876V43.5095C23.3953 43.712 22.7194 44.1905 22.2705 44.8552C21.8215 45.52 21.6301 46.3256 21.7323 47.1212C21.8344 47.9168 22.223 48.648 22.8253 49.1778C23.4277 49.7077 24.2025 50 25.0048 50C25.8071 50 26.5819 49.7077 27.1842 49.1778C27.7866 48.648 28.1752 47.9168 28.2773 47.1212C28.3794 46.3256 28.1881 45.52 27.7391 44.8552C27.2901 44.1905 26.6142 43.712 25.838 43.5095V35.3876C27.1792 35.28 28.4866 34.9122 29.6872 34.3047C29.7277 34.2887 29.7667 34.2691 29.8038 34.2464C30.5046 33.8839 31.1615 33.4423 31.7618 32.9303L37.5106 38.678C37.2071 39.1778 37.0458 39.751 37.0441 40.3357C37.0441 40.9881 37.2376 41.6259 37.6001 42.1684C37.9627 42.7108 38.4779 43.1337 39.0808 43.3833C39.6837 43.633 40.3471 43.6983 40.9871 43.571C41.6271 43.4438 42.215 43.1296 42.6764 42.6683C43.1378 42.2069 43.4521 41.6191 43.5794 40.9793C43.7067 40.3394 43.6413 39.6761 43.3916 39.0733C43.1419 38.4706 42.719 37.9554 42.1764 37.5929C41.6339 37.2305 40.996 37.037 40.3434 37.037C39.7586 37.0387 39.1853 37.2 38.6854 37.5035L32.9366 31.7557C34.358 30.0888 35.218 28.0164 35.3944 25.833H43.5178C43.6743 26.4286 43.9946 26.9684 44.4424 27.3912C44.8902 27.8139 45.4475 28.1028 46.0512 28.2249C46.6549 28.3471 47.2807 28.2976 47.8577 28.0822C48.4346 27.8667 48.9397 27.4939 49.3155 27.0061C49.6913 26.5182 49.9228 25.9348 49.9838 25.3221C50.0448 24.7093 49.9328 24.0917 49.6605 23.5394C49.3882 22.987 48.9666 22.5221 48.4434 22.1972C47.9202 21.8723 47.3164 21.7005 46.7005 21.7013ZM28.5707 32.9969C27.4548 33.4993 26.2453 33.7604 25.0214 33.7633C25.0131 33.7633 25.0131 33.7549 25.0048 33.7549C24.9965 33.7549 24.9965 33.7633 24.9881 33.7633C23.7643 33.7604 22.5548 33.4993 21.4388 32.9969V32.0139C21.4388 31.0684 21.8145 30.1615 22.4833 29.4929C23.152 28.8243 24.059 28.4487 25.0048 28.4487C25.9505 28.4487 26.8576 28.8243 27.5263 29.4929C28.195 30.1615 28.5707 31.0684 28.5707 32.0139V32.9969ZM22.4386 24.217C22.4386 23.7095 22.5891 23.2135 22.8711 22.7916C23.1531 22.3696 23.5539 22.0408 24.0228 21.8466C24.4917 21.6524 25.0076 21.6016 25.5054 21.7006C26.0032 21.7996 26.4604 22.044 26.8193 22.4028C27.1782 22.7616 27.4226 23.2187 27.5216 23.7164C27.6206 24.2141 27.5698 24.73 27.3756 25.1988C27.1814 25.6676 26.8525 26.0683 26.4305 26.3502C26.0085 26.6322 25.5123 26.7826 25.0048 26.7826C24.3243 26.7824 23.6717 26.512 23.1905 26.0309C22.7093 25.5498 22.4388 24.8974 22.4386 24.217ZM33.7697 25.0167C33.7646 26.3759 33.4426 27.7153 32.8294 28.9285C32.2162 30.1416 31.3286 31.1952 30.2371 32.0056C30.2371 31.3187 30.1018 30.6384 29.8387 30.0038C29.5757 29.3692 29.1901 28.7926 28.7041 28.3071C28.3855 27.9957 28.0302 27.7244 27.6459 27.499C28.3339 26.9521 28.8346 26.2047 29.0788 25.3605C29.323 24.5163 29.2986 23.6171 29.0088 22.7874C28.7191 21.9577 28.1784 21.2387 27.4618 20.7299C26.7451 20.2212 25.8879 19.9478 25.0089 19.9478C24.13 19.9478 23.2728 20.2212 22.5561 20.7299C21.8395 21.2387 21.2988 21.9577 21.0091 22.7874C20.7193 23.6171 20.6949 24.5163 20.9391 25.3605C21.1833 26.2047 21.684 26.9521 22.372 27.499C21.5821 27.957 20.9263 28.6143 20.4701 29.4051C20.0139 30.196 19.7734 31.0927 19.7725 32.0056C18.681 31.1952 17.7934 30.1416 17.1802 28.9285C16.567 27.7153 16.245 26.3759 16.2398 25.0167C16.2398 25.0083 16.2482 25.0083 16.2482 25C16.2482 24.9917 16.2398 24.9917 16.2398 24.9833C16.248 22.6661 17.1723 20.4461 18.8111 18.8075C20.45 17.169 22.6704 16.2449 24.9881 16.2367C24.9965 16.2367 24.9965 16.2451 25.0048 16.2451C25.0131 16.2451 25.0131 16.2367 25.0214 16.2367C27.3391 16.2449 29.5596 17.169 31.1984 18.8075C32.8373 20.4461 33.7616 22.6661 33.7697 24.9833C33.7697 24.9917 33.7614 24.9917 33.7614 25C33.7614 25.0083 33.7697 25.0083 33.7697 25.0167Z" fill="#157AF1"/>
</svg>
