<svg width="25" height="21" viewBox="0 0 25 21" fill="none" xmlns="http://www.w3.org/2000/svg">
<g clip-path="url(#clip0_1372_3134)">
<path d="M22.523 21.0001C22.3268 20.9262 22.1274 20.8599 21.9346 20.7776C20.8725 20.3251 19.8091 19.8745 18.7527 19.4089C18.5538 19.3214 18.3699 19.312 18.1676 19.3511C15.9147 19.7861 13.7978 19.423 11.8487 18.2133C10.5971 17.4363 9.66681 16.3734 9.22987 14.9365C8.81973 13.5876 8.97682 12.2876 9.67292 11.0717C10.6526 9.36067 12.1958 8.38519 14.0485 7.85324C15.2652 7.50378 16.505 7.42994 17.7622 7.60114C19.4465 7.83114 20.9549 8.44869 22.2149 9.60806C23.1753 10.4918 23.8037 11.5651 23.9913 12.8736C23.9998 12.9343 24.0205 12.9931 24.0356 13.0523V14.0377C24.0224 14.065 24.0003 14.0908 23.9965 14.119C23.8187 15.4873 23.133 16.5747 22.1241 17.4768C21.8179 17.7505 21.4826 17.9913 21.151 18.2552C21.6096 19.1728 22.0667 20.0862 22.5234 21.0001H22.523ZM14.269 13.1436C14.8748 13.1455 15.3936 12.6286 15.3955 12.0214C15.3974 11.4156 14.8805 10.8973 14.2728 10.8954C13.667 10.8935 13.1482 11.4104 13.1463 12.0176C13.1445 12.6234 13.6618 13.1422 14.269 13.1436ZM19.9018 12.0214C19.9037 11.4156 19.3863 10.8968 18.7791 10.8954C18.1733 10.8935 17.6545 11.4104 17.6526 12.0176C17.6507 12.6234 18.1676 13.1417 18.7753 13.1436C19.3811 13.1455 19.8999 12.6286 19.9018 12.0214Z" fill="#888888"/>
<path d="M17.8521 6.10438C17.6847 6.08744 17.5393 6.07051 17.394 6.05875C15.6655 5.92189 13.9958 6.16881 12.4023 6.85879C10.6127 7.63344 9.16831 8.81398 8.25539 10.5632C7.5861 11.8462 7.34906 13.2121 7.63361 14.649C7.65007 14.7317 7.6543 14.8164 7.66935 14.9457C7.28321 14.8681 6.9187 14.8013 6.55748 14.72C6.34489 14.672 6.12571 14.6259 5.93005 14.5347C5.62716 14.3931 5.36283 14.4312 5.06558 14.5657C4.23402 14.9424 3.38977 15.291 2.55069 15.6498C2.47544 15.6818 2.39784 15.7086 2.25674 15.7622C2.66734 14.9387 3.04784 14.1749 3.40576 13.4576C2.86629 12.9703 2.30847 12.5353 1.83249 12.0235C0.557884 10.6525 -0.0977634 9.02328 0.0118247 7.13676C0.0983664 5.64674 0.670294 4.33356 1.63918 3.20335C3.05395 1.55247 4.87556 0.596279 6.98878 0.203549C9.75482 -0.310057 12.3609 0.131117 14.7178 1.70956C16.2389 2.72831 17.322 4.10028 17.806 5.8979C17.822 5.95669 17.8328 6.01642 17.8521 6.10391V6.10438ZM6.00766 5.63498C6.61345 5.63686 7.13223 5.11996 7.13411 4.51276C7.13599 3.90697 6.61909 3.38866 6.01142 3.38678C5.40563 3.3849 4.88685 3.9018 4.88497 4.509C4.88309 5.11479 5.40046 5.63357 6.00766 5.63498ZM13.1426 4.50618C13.1384 3.89803 12.6182 3.38255 12.0134 3.38678C11.4052 3.39101 10.8893 3.9112 10.8935 4.51558C10.8977 5.12373 11.4179 5.63921 12.0228 5.63498C12.6309 5.63075 13.1469 5.11056 13.1426 4.50618Z" fill="#888888"/>
</g>
<defs>
<clipPath id="clip0_1372_3134">
<rect width="24.0351" height="21" fill="white"/>
</clipPath>
</defs>
</svg>
