<svg width="50" height="50" viewBox="0 0 50 50" fill="none" xmlns="http://www.w3.org/2000/svg">
<g clip-path="url(#clip0_1372_2847)">
<path d="M33.9844 19.043H50V23.1445H33.9844V19.043Z" fill="#F8676E"/>
<path d="M33.9844 41.3574H43.4187C47.0477 41.3574 50 38.4051 50 34.7762V26.0742H33.9844V41.3574ZM37.5269 30.5664H42.9036V33.4961H37.5269V30.5664Z" fill="#F8676E"/>
<path d="M50 16.1133V15.2238C50 11.5949 47.0477 8.64258 43.4187 8.64258H33.9844V16.1133H50Z" fill="#F8676E"/>
<path d="M21.4681 45.5243C21.4681 47.3086 20.6763 48.9104 19.427 50.0002H24.7071C28.2072 50.0002 31.0547 47.1526 31.0547 43.6525V42.5132H20.6456C21.1673 43.3969 21.4681 44.4259 21.4681 45.5243Z" fill="#F8676E"/>
<path d="M15.5274 42.5132C13.867 42.5132 12.5164 43.864 12.5164 45.5242C12.5164 47.1845 13.867 48.5354 15.5274 48.5354C17.1877 48.5354 18.5384 47.1846 18.5384 45.5243C18.5384 43.8641 17.1876 42.5132 15.5274 42.5132Z" fill="#F8676E"/>
<path d="M9.58652 45.5242C9.58652 44.4258 9.88731 43.3968 10.4092 42.5132H0V43.6524C0 47.1525 2.84756 50.0001 6.34766 50.0001H11.6276C10.3783 48.9102 9.58652 47.3084 9.58652 45.5242Z" fill="#F8676E"/>
<path d="M24.707 0H6.34766C2.84756 0 0 2.84756 0 6.34766V39.5833H31.0547V6.34766C31.0547 2.84756 28.2071 0 24.707 0ZM16.8088 17.9588C16.6461 17.9013 16.4882 17.8461 16.3348 17.7924C14.8254 17.2646 13.6332 16.8478 12.6301 15.9124C11.628 14.978 11.2041 13.4957 11.5238 12.0438C11.856 10.5355 12.9133 9.35342 14.3521 8.88144C14.3719 8.875 14.3914 8.86934 14.4111 8.86309V6.86855H17.3408V8.80713C19.3624 9.3666 20.6679 10.9791 20.7448 11.0761L18.4497 12.8969L18.4557 12.9043C18.3956 12.8307 16.9655 11.1072 15.2652 11.6652C14.625 11.8752 14.4363 12.4406 14.385 12.6739C14.2899 13.1052 14.3876 13.5456 14.628 13.7697C15.1811 14.2854 16.0247 14.5804 17.3018 15.027C17.4582 15.0816 17.6192 15.138 17.7852 15.1966C19.9827 15.9734 21.1952 17.9106 20.8743 20.132C20.6266 21.8472 19.3659 23.632 17.3409 24.2884V26.4359H14.4112V24.4498C12.2996 24.0727 10.9816 22.7559 10.4216 22.1958L12.4932 20.1242C13.0469 20.6779 14.0779 21.709 15.7987 21.6176C17.1148 21.548 17.8493 20.5815 17.9748 19.713C18.0437 19.2362 17.9838 18.3741 16.8088 17.9588ZM20.9251 32.6991H10.1296V29.7694H20.9252V32.6991H20.9251Z" fill="#F8676E"/>
</g>
<defs>
<clipPath id="clip0_1372_2847">
<rect width="50" height="50" fill="white"/>
</clipPath>
</defs>
</svg>
