<svg width="50" height="50" viewBox="0 0 50 50" fill="none" xmlns="http://www.w3.org/2000/svg">
<g clip-path="url(#clip0_1372_2895)">
<path d="M25 35.0789C25.8122 35.0789 26.4706 34.4205 26.4706 33.6083C26.4706 32.7961 25.8122 32.1377 25 32.1377C24.1878 32.1377 23.5294 32.7961 23.5294 33.6083C23.5294 34.4205 24.1878 35.0789 25 35.0789Z" fill="#B96FCC"/>
<path d="M36.9507 26.2554H13.0492C12.5161 28.3195 10.8876 29.9478 8.82349 30.4811V36.7357C10.8876 37.2688 12.516 38.8972 13.0492 40.9613H36.9508C37.484 38.8972 39.1124 37.2689 41.1765 36.7357V30.4811C39.1123 29.9478 37.4839 28.3195 36.9507 26.2554ZM17.647 35.0789H14.7058V32.1377H17.647V35.0789ZM25 38.0201C22.5674 38.0201 20.5882 36.041 20.5882 33.6083C20.5882 31.1756 22.5674 29.1965 25 29.1965C27.4327 29.1965 29.4117 31.1756 29.4117 33.6083C29.4117 36.0411 27.4327 38.0201 25 38.0201ZM35.2941 35.0789H32.3529V32.1377H35.2941V35.0789Z" fill="#B96FCC"/>
<path d="M0 17.4316V49.7846H50V17.4316H0ZM44.1176 39.4905H42.6471C41.0253 39.4905 39.7059 40.8099 39.7059 42.4316V43.9022H10.2941V42.4316C10.2941 40.8099 8.97471 39.4905 7.35294 39.4905H5.88235V27.7258H7.35294C8.97471 27.7258 10.2941 26.4063 10.2941 24.7846V23.314H39.7059V24.7846C39.7059 26.4063 41.0253 27.7258 42.6471 27.7258H44.1176V39.4905Z" fill="#B96FCC"/>
<path d="M37.1955 11.9803L39.2751 14.06L44.7268 8.60831L39.2751 3.15674L37.1955 5.23644L39.0968 7.13772H26.4706V10.0789H39.0968L37.1955 11.9803Z" fill="#B96FCC"/>
<path d="M12.8045 9.03886L10.9032 7.13749H23.5294V4.19631H10.9032L12.8045 2.29504L10.7249 0.215332L5.27319 5.6669L10.7249 11.1186L12.8045 9.03886Z" fill="#B96FCC"/>
</g>
<defs>
<clipPath id="clip0_1372_2895">
<rect width="50" height="50" fill="white"/>
</clipPath>
</defs>
</svg>
