<svg width="50" height="50" viewBox="0 0 50 50" fill="none" xmlns="http://www.w3.org/2000/svg">
<g clip-path="url(#clip0_1372_2931)">
<path d="M26.4647 17.6686C26.4647 16.8609 25.8077 16.2039 25 16.2039C24.1924 16.2039 23.5353 16.8609 23.5353 17.6686V20.1106H26.4647V17.6686Z" fill="#157AF1"/>
<path d="M20.5989 23.04H29.4013V27.9334H20.5989V23.04Z" fill="#157AF1"/>
<path d="M39.7426 11.4144L25.0001 7.56885L10.2574 11.4144V22.4352C10.2574 27.1244 11.859 31.7327 14.7672 35.4113C17.3851 38.7227 20.9801 41.1777 25.0001 42.4242C29.0201 41.1777 32.615 38.7227 35.233 35.4113C38.1411 31.7327 39.7427 27.1244 39.7427 22.4352V11.4144H39.7426ZM32.3307 30.8631H17.6694V20.1108H20.6059V17.6688C20.6059 15.2458 22.5771 13.2746 25.0001 13.2746C27.423 13.2746 29.3943 15.2458 29.3943 17.6688V20.1108H32.3308V30.8631H32.3307Z" fill="#157AF1"/>
<path d="M25 0L2.93359 5.75591V22.4352C2.93359 28.7658 5.09573 34.9871 9.0218 39.9532C12.9478 44.9193 18.5022 48.4588 24.6619 49.9198L25 50L25.338 49.9198C31.4977 48.4588 37.0521 44.9193 40.9781 39.9532C44.9041 34.9871 47.0663 28.7658 47.0663 22.4352V5.75591L25 0ZM32.2972 42.1093C30.3146 43.4668 28.1513 44.5142 25.8676 45.2223L25 45.4914L24.1324 45.2223C21.8486 44.5142 19.6852 43.4668 17.7027 42.1093C15.7139 40.7476 13.953 39.1053 12.4689 37.228C9.15363 33.0345 7.32779 27.7809 7.32779 22.4352V11.4143V9.15096L9.51786 8.57972L24.2605 4.73421L24.9999 4.54135L25.7393 4.73421L40.4819 8.57972L42.672 9.15096V11.4143V22.4351C42.672 27.7809 40.8461 33.0344 37.5309 37.2279C36.0468 39.1052 34.286 40.7476 32.2972 42.1093Z" fill="#157AF1"/>
</g>
<defs>
<clipPath id="clip0_1372_2931">
<rect width="50" height="50" fill="white"/>
</clipPath>
</defs>
</svg>
