<svg width="22" height="21" viewBox="0 0 22 21" fill="none" xmlns="http://www.w3.org/2000/svg">
<g clip-path="url(#clip0_1372_3137)">
<path d="M9.79448 0C10.2867 0 10.7785 0 11.2707 0C11.5132 0.031637 11.7556 0.0595762 11.9976 0.0949111C13.7294 0.347596 15.3141 0.970887 16.7197 2.01614C18.9635 3.6851 20.3567 5.89435 20.8666 8.65006C20.9344 9.01737 20.9767 9.38962 21.0306 9.75941V11.2357C20.9854 11.5656 20.9517 11.898 20.8933 12.2255C20.4155 14.9134 19.1171 17.121 16.9592 18.7932C14.6325 20.5961 11.9807 21.2864 9.07176 20.8932C6.59504 20.5583 4.48932 19.449 2.80804 17.5988C0.597969 15.1677 -0.280882 12.2912 0.135329 9.03956C0.395821 7.00657 1.2266 5.20532 2.57138 3.65593C4.20418 1.77537 6.24744 0.59946 8.70486 0.161061C9.06601 0.0965546 9.43127 0.0530023 9.79448 0ZM10.3894 13.8204C10.4498 13.8632 10.5057 13.901 10.5599 13.9408C11.3299 14.5078 12.0995 15.0752 12.869 15.6422C13.4611 16.0782 13.8296 15.9319 13.9825 15.21C14.4948 12.79 15.0134 10.3712 15.5241 7.95075C15.6013 7.58508 15.6786 7.21489 15.6991 6.84346C15.7201 6.46422 15.4263 6.26125 15.0573 6.34836C14.9846 6.36562 14.9135 6.39068 14.8441 6.41739C12.2059 7.43429 9.5681 8.45161 6.93031 9.46933C6.19937 9.75119 5.4672 10.0302 4.73995 10.3211C4.5452 10.3987 4.31265 10.4982 4.32251 10.7459C4.33278 11.0006 4.58136 11.0528 4.78186 11.1165C5.56087 11.363 6.34235 11.6026 7.12013 11.8532C7.25695 11.8972 7.36049 11.8824 7.48087 11.806C8.63377 11.0746 9.78955 10.3482 10.9453 9.62094C11.7482 9.11557 12.5494 8.60733 13.3588 8.11223C13.4488 8.05717 13.5864 8.07936 13.7015 8.0658C13.648 8.15578 13.6123 8.26507 13.5383 8.33245C12.0107 9.71955 10.4798 11.1034 8.9448 12.4827C8.82195 12.5928 8.77347 12.7082 8.76525 12.8701C8.73773 13.4018 8.69335 13.933 8.6572 14.4643C8.63871 14.7387 8.6235 15.0136 8.60707 15.2885C8.62597 15.3037 8.64487 15.3189 8.66377 15.3341C8.80922 15.2441 8.97357 15.1747 9.09683 15.0609C9.53317 14.6578 9.95555 14.2395 10.3902 13.8204H10.3894Z" fill="#888888"/>
</g>
<defs>
<clipPath id="clip0_1372_3137">
<rect width="20.9955" height="21" fill="white" transform="translate(0.0351562)"/>
</clipPath>
</defs>
</svg>
