<svg width="116" height="100" viewBox="0 0 116 100" fill="none" xmlns="http://www.w3.org/2000/svg">
<path fill-rule="evenodd" clip-rule="evenodd" d="M31.6109 0H51.902L21.4654 71.0187H1.17437L31.6109 0Z" fill="#EE2E24"/>
<path fill-rule="evenodd" clip-rule="evenodd" d="M51.902 0H31.6109L55.6477 56.0857H75.9387L51.902 0Z" fill="#1F60AD"/>
<path fill-rule="evenodd" clip-rule="evenodd" d="M82.4709 0H62.1798L92.6164 71.0187H112.916L82.4709 0Z" fill="#1F60AD"/>
<path fill-rule="evenodd" clip-rule="evenodd" d="M62.1798 0H82.4709L58.4342 56.0857H38.1431L62.1798 0Z" fill="#EE2E24"/>
<path fill-rule="evenodd" clip-rule="evenodd" d="M0.686523 99.6775V80.4283H6.52413L9.97212 93.5505L13.3788 80.4283H19.2329V99.6775H15.6278L15.6113 84.5295L11.816 99.6775H8.07035L4.29162 84.5295L4.27508 99.6775H0.686523ZM36.9359 92.5831L40.6981 93.7407C40.1193 95.8575 39.1601 97.4285 37.8124 98.462C36.4646 99.4873 34.7695 100 32.7024 100C30.1474 100 28.0472 99.1235 26.3935 97.3789C24.748 95.6342 23.9212 93.2446 23.9212 90.21C23.9212 87.0101 24.748 84.513 26.4018 82.7435C28.0555 80.9658 30.2301 80.081 32.9257 80.081C35.2822 80.081 37.1922 80.7756 38.664 82.173C39.5405 82.9998 40.1937 84.1822 40.632 85.7285L36.7871 86.6463C36.5555 85.654 36.0842 84.8603 35.3649 84.2815C34.6372 83.7027 33.7608 83.4133 32.7272 83.4133C31.2967 83.4133 30.1391 83.9259 29.2544 84.9512C28.3614 85.9765 27.9232 87.6302 27.9232 89.9206C27.9232 92.3516 28.3614 94.0797 29.2379 95.1133C30.1143 96.1468 31.2554 96.6595 32.6528 96.6595C33.6864 96.6595 34.5794 96.3288 35.3235 95.6755C36.0677 95.0141 36.6052 93.9888 36.9276 92.5748L36.9359 92.5831ZM49.8597 99.6775V83.6861H44.1626V80.4366H59.4264V83.6861H53.7542V99.6775H49.8597ZM63.4449 99.6775V80.4283H69.6794C72.0359 80.4283 73.5739 80.5193 74.2933 80.7177C75.393 81.0071 76.3191 81.6355 77.0632 82.6029C77.8074 83.5704 78.1795 84.8189 78.1795 86.3486C78.1795 87.531 77.9645 88.5232 77.5428 89.3253C77.1128 90.1356 76.5671 90.764 75.9139 91.2271C75.2524 91.6818 74.5827 91.9878 73.9046 92.1366C72.9786 92.3185 71.6391 92.4177 69.8779 92.4177H67.3477V99.6775H63.4449ZM67.3394 83.6861V89.1682H69.4562C70.9858 89.1682 72.0029 89.069 72.5155 88.8622C73.0282 88.6638 73.4333 88.3496 73.7227 87.9114C74.0121 87.4814 74.161 86.9853 74.161 86.4147C74.161 85.7119 73.9543 85.1331 73.5491 84.6784C73.1357 84.2236 72.623 83.9342 71.9863 83.8184C71.5233 83.7357 70.5972 83.6861 69.1998 83.6861H67.3311H67.3394ZM94.0055 99.6775L92.3435 95.2952H84.629L83.0331 99.6775H78.9154L86.3902 80.4283H90.5079L98.2142 99.6775H94.0055ZM91.0867 92.0456L88.416 84.9264L85.8196 92.0456H91.095H91.0867ZM104.366 99.6775H108.261V91.6074L115.314 80.4366H110.84L106.408 88.0602L101.861 80.4366H97.3047L104.358 91.5826V99.6858L104.366 99.6775Z" fill="#FCFEFF"/>
</svg>
