<svg width="50" height="50" viewBox="0 0 50 50" fill="none" xmlns="http://www.w3.org/2000/svg">
<g clip-path="url(#clip0_1372_2872)">
<path d="M5.95703 20.7012H14.7461V41.209H5.95703V20.7012Z" fill="#9085FA"/>
<path d="M35.2539 20.7012H44.043V41.209H35.2539V20.7012Z" fill="#9085FA"/>
<path d="M24.8815 0.00195312L0 12.4729V17.7717H50V12.4688L24.8815 0.00195312ZM14.1949 11.9123L24.8943 6.54961L35.6991 11.9123H14.1949Z" fill="#9085FA"/>
<path d="M0 44.1387H50V49.998H0V44.1387Z" fill="#9085FA"/>
<path d="M25 35.3496C24.1923 35.3496 23.5352 34.6925 23.5352 33.8848H20.6055C20.6055 35.7944 21.8302 37.4227 23.5352 38.0273V41.209H26.4648V38.0273C28.1698 37.4227 29.3945 35.7944 29.3945 33.8848C29.3945 31.6462 27.712 29.7932 25.5452 29.5239V29.4902H25C24.1923 29.4902 23.5352 28.8331 23.5352 28.0254C23.5352 27.2177 24.1923 26.5605 25 26.5605C25.8077 26.5605 26.4648 27.2177 26.4648 28.0254H29.3945C29.3945 26.1157 28.1698 24.4875 26.4648 23.8828V20.7012H23.5352V23.8828C21.8302 24.4875 20.6055 26.1157 20.6055 28.0254C20.6055 30.2861 22.3213 32.1536 24.5191 32.3938V32.4199H25C25.8077 32.4199 26.4648 33.077 26.4648 33.8848C26.4648 34.6925 25.8077 35.3496 25 35.3496Z" fill="#9085FA"/>
</g>
<defs>
<clipPath id="clip0_1372_2872">
<rect width="50" height="50" fill="white"/>
</clipPath>
</defs>
</svg>
