<svg width="20" height="20" viewBox="0 0 20 20" fill="none" xmlns="http://www.w3.org/2000/svg">
<path d="M9.33395 0C9.77652 0 10.2191 0 10.6617 0C10.718 0.0125231 10.7736 0.0273944 10.8303 0.0375694C11.4369 0.144016 12.0579 0.198805 12.648 0.363171C17.9009 1.82681 21.013 7.13937 19.6998 12.4124C19.0815 14.8939 17.6881 16.8632 15.5711 18.294C13.4639 19.7181 11.1273 20.237 8.60963 19.9016C7.18722 19.7122 5.86693 19.2203 4.657 18.4431C4.55095 18.375 4.4586 18.3554 4.33299 18.3969C3.63059 18.6294 2.92505 18.8516 2.22069 19.0775C1.71042 19.241 1.20015 19.4038 0.663273 19.5756C0.685969 19.4923 0.6981 19.4379 0.715709 19.3851C1.08354 18.2901 1.44824 17.1939 1.82351 16.1012C1.88182 15.9314 1.87125 15.8046 1.76599 15.6543C0.939539 14.4701 0.403442 13.1638 0.156525 11.7412C0.0935234 11.3706 0.0520444 10.9965 0 10.6239C0 10.1942 0 9.76453 0 9.33483C0.012522 9.27848 0.0293484 9.22252 0.0371746 9.16538C0.0856972 8.81199 0.114654 8.45508 0.182351 8.10561C0.559575 6.15317 1.44316 4.45902 2.82996 3.03647C4.38973 1.43664 6.2782 0.459834 8.48911 0.115448C8.77007 0.0716168 9.0526 0.0383521 9.33434 0H9.33395ZM4.1839 7.31587C4.2019 7.50332 4.20738 7.69274 4.23947 7.87784C4.39756 8.78695 4.81704 9.57825 5.33905 10.3269C6.10172 11.4203 6.95869 12.4257 7.97414 13.2953C9.2416 14.3805 10.727 15.0219 12.315 15.4551C12.8988 15.6144 13.4955 15.6696 14.0825 15.4661C15.483 14.98 15.9855 14.3038 16.0187 12.9748C16.0234 12.7834 15.9534 12.6523 15.7796 12.5693C15.024 12.2089 14.2727 11.8387 13.5135 11.4861C13.1504 11.3174 12.9301 11.3914 12.6871 11.7162C12.4965 11.9713 12.311 12.2308 12.1154 12.4821C11.784 12.9071 11.584 12.9575 11.0898 12.7544C9.42552 12.0704 8.19797 10.894 7.27996 9.37006C7.14026 9.13838 7.15435 9.00062 7.33591 8.78421C7.53666 8.54509 7.74992 8.31655 7.95223 8.079C8.17645 7.81523 8.26215 7.52954 8.08371 7.20042C8.01914 7.08106 7.97845 6.94917 7.92523 6.82394C7.65366 6.18487 7.38248 5.5458 7.10974 4.90712C7.04165 4.74745 6.92699 4.6367 6.75169 4.6093C5.98041 4.48916 5.33201 4.66252 4.84952 5.33447C4.41986 5.93245 4.20464 6.58639 4.18312 7.31665L4.1839 7.31587Z" fill="#888888"/>
</svg>
