<svg version="1.2" xmlns="http://www.w3.org/2000/svg" viewBox="0 0 250 250" width="250" height="250">
	<title>bank-of-china-limited-seeklogo-ai</title>
	<style>
		.s0 { fill: #b0013f } 
		.s1 { fill: #1f1a17 } 
	</style>
	<g id="Layer 1">
		<g id="&lt;Group&gt;">
			<path id="&lt;Compound Path&gt;" fill-rule="evenodd" class="s0" d="m187 103.2c0 33.5-27.3 60.8-60.8 60.8-33.5 0-60.8-27.3-60.8-60.8 0-33.6 27.3-60.8 60.8-60.8 33.5 0 60.8 27.2 60.8 60.8zm-46 10.9v-21.9c-0.2 0-29.2 0-29.6 0v21.9c0.2 0 29.1 0 29.6 0zm-22.5 33.8v-20.3h-7.3c-7.3 0-13.3-5.8-13.3-12.9v-23.1c0-7.1 6-12.9 13.3-12.9h7.3v-20.2c-21.4 3.7-37.7 22.3-37.7 44.7 0 22.4 16.3 41 37.7 44.7zm53.1-44.7c0-22.4-16.3-41-37.7-44.7v20.2h7.2c7.4 0 13.4 5.8 13.4 12.9v23.1c0 7.1-6 12.9-13.4 12.9h-7.2v20.3c21.4-3.7 37.7-22.3 37.7-44.7z"/>
			<path id="&lt;Compound Path&gt;" fill-rule="evenodd" class="s1" d="m158.5 203.5l0.4 0.3-0.1 0.2-0.1 0.1-0.2 0.2-0.2 0.1-0.2 0.1-0.3 0.2-0.7 0.2-1 0.2h-1.9l-1.8-0.2-0.6-0.1-0.2-0.1-0.5-0.1-1.6-0.7-0.6-0.1-0.2-0.1h-0.1l-0.1 0.1h-0.1-0.1l-0.1 0.1-0.1 0.1-0.4 0.3-1.4 1.4-0.2 0.2-1 0.8-0.6 0.3-0.6 0.3-0.6 0.3-0.5 0.1h-0.5-0.2l-0.4-0.1-0.7-0.2-0.6-0.3-0.2-0.2-0.2-0.1-0.1-0.1-0.1-0.1v-0.1h-0.1l-0.1-0.2v-0.1l-0.1-0.2v-0.3-0.6-0.5-0.3l-0.1-0.2v-0.1h-0.1v-0.1h-0.1v-0.1h-0.1-0.1-0.1-0.1v0.1h-0.1l-0.4 0.3-0.9 1-0.3 0.2-0.1 0.1-0.3 0.2-2 1.3-2.1 0.9-0.4 0.2-0.4 0.2-0.2 0.1h-0.2-0.1-0.1-0.1-0.1-0.1-0.1v-0.1h-0.1l-0.1-0.1-0.1-0.1v-0.1-0.1l-0.1-0.1v-0.2-0.2-0.5l0.1-0.4 0.1-0.2v-0.1l0.1-0.1 0.3-0.4 1-1.5h-1.1-0.3l-0.1 0.1-0.2 0.1-0.2 0.2-0.8 0.6-0.2 0.1v0.1l-0.2 0.1h-0.1-0.1-0.1-0.1-0.1l-0.1-0.1-0.1-0.1-0.2-0.1-0.1-0.1-0.2-0.3v-0.1l-0.1-0.1v-0.1-0.1-0.1-0.1l0.1-0.1 0.1-0.2 0.1-0.1 0.2-0.3 0.6-0.6 1.5-1.1 0.4-0.3 0.1-0.2 0.2-0.1v-0.1-0.1-0.1l0.1-0.1v-0.2l-0.1-0.1v-0.3l-0.4-1.2-0.1-0.2-0.1-0.3v-0.2-0.1-0.3-0.1l0.1-0.3 0.1-0.3 0.1-0.2 1-1.5 0.1-0.3 0.1-0.2 0.1-0.2v-0.2-0.1-0.3l-0.1-0.3-0.2-0.5-0.1-0.2v-0.2-0.1-0.2l0.1-0.2v-0.1-0.1l0.1-0.1 0.1-0.1 0.2-0.2 0.3-0.3 0.7-0.4 0.3-0.2 0.3-0.1 0.3-0.1h0.2 0.2l0.3 0.1 0.2 0.1 0.2 0.1 0.3 0.1 0.1 0.2 0.2 0.2 0.2 0.2 0.1 0.2 0.1 0.1v0.2l0.1 0.2v0.2 0.2 0.1l-0.1 0.1-0.2 0.2-0.8 0.7-0.6 0.5h-0.1l-0.2 0.3-0.3 0.4-0.1 0.1v0.1 0.1h-0.1v0.1 0.1l0.1 0.1v0.1h0.1l0.1 0.1h0.1 0.3 0.1 0.1l0.2-0.1 0.1-0.1 0.2-0.1h0.1l0.2-0.3 0.1-0.1 0.1-0.1 0.1-0.1 0.3-0.1 0.2 0.2 0.1 0.2 0.1 0.3 0.1 0.3 0.1 0.3v0.3 0.3l-0.1 0.3-0.1 0.2-0.5 0.9h0.1l0.4-0.1h0.6l0.6 0.1 0.4 0.1 0.2 0.1 0.1 0.1h0.1l0.1 0.1 0.1 0.1v0.1l0.1 0.1v0.1 0.1l0.1 0.1-0.1 0.1v0.1 0.2l-0.1 0.1-0.2 0.3-0.3 0.4-0.6 0.6-2.1 1.9-0.4 0.5-0.2 0.1-0.2 0.4-0.1 0.1v0.1 0.1l-0.1 0.1v0.2h0.1v0.1 0.1h0.1 0.1 0.1 0.1l0.1-0.1 0.2-0.1 0.5-0.4 0.8-0.7 0.6-0.6 1.6-1.5 0.2-0.1v-0.2l0.2-0.3 0.2-0.6 0.3-1.2v-0.3l0.6-4.2 0.3-2.2 0.1-0.8 0.4-1.4 0.3-1.6 0.5-1.4 0.6-1.5 0.3-0.7 0.3-0.7 0.1-0.2 0.1-0.1 0.1-0.1h0.1v-0.1h0.1 0.1l0.1-0.1h0.8l0.1-0.1 0.2-0.1 0.7-0.6 1.8-1.8 1-0.8 0.6-0.4 0.3-0.1 0.1-0.1h0.1 0.2 0.1 0.1 0.1l0.1 0.1h0.1v0.1h0.1l0.1 0.1v0.1l0.1 0.1v0.2l0.1 0.1v0.2 0.1 0.1l-0.1 0.4-0.2 0.5-0.4 1.2-0.2 0.6-0.5 2.1-0.4 1.7-0.5 1.8-0.4 1-0.4 0.8-0.2 0.6-0.1 0.3v0.1 0.1 0.2 0.1l0.1 0.2 0.2 0.5 0.5 0.9 0.1 0.3 0.1 0.1v0.2 0.1 0.1 0.1l-0.2 0.2-0.1 0.2-0.2 0.2-0.2 0.2-0.4 0.3-0.7 0.3-1.4 0.6-0.7 0.4-0.2 0.2h-0.1v0.1h-0.1v0.1 0.1 0.1h0.1v0.1h0.1v0.1h0.1 0.1l0.3 0.1h0.2l0.1 0.1 0.9-0.2h0.5l1-0.1 2.6-0.4 0.7-0.3 0.3-0.1 0.3-0.2h0.1l0.2-0.1 0.3-0.3 1-1 0.3-0.2 0.2-0.2h0.1l0.1-0.1h0.1 0.1 0.1 0.1 0.2 0.1v0.1h0.1v0.1h0.1v0.1 0.1h0.1v0.1h-0.1v0.2l-0.1 0.1-0.1 0.2-0.3 0.3-1.4 1.4-0.3 0.3-0.1 0.2-0.3 0.4-0.2 0.4h-0.1l-0.7 1.7 2.3 0.8 2.8 0.7 1.4 0.5 0.9 0.4 0.4 0.3zm-26.1-1.5l-0.4 0.2-0.4 0.3-0.1 0.2-0.2 0.2-0.1 0.3-0.2 0.3 0.8 0.1 0.3-0.1 0.2-0.2h0.1v-0.1-0.2zm1.9-0.2h0.1l0.1-0.1 0.1-0.1 0.2-0.1 0.2-0.2 0.4-0.5 0.6-1.1-0.8 0.1-0.7 0.2v0.1h-0.1v0.1l-0.1 0.1v0.1 0.2 0.1l-0.1 0.3zm12.5-8.6v-0.1l-0.1-0.1-0.1-0.1-0.1-0.1-0.2-0.2-0.1-0.1-0.7 0.4-0.1 0.1-0.3 0.4-0.1 0.4-0.2 0.4v0.3 0.1h0.1l0.2-0.1h0.1l0.4-0.2 0.5-0.2 0.2-0.1 0.1-0.1 0.1-0.1 0.1-0.1 0.1-0.1 0.1-0.1v-0.1-0.1zm-2.6-4.2v0.1 0.1h0.1v0.1h0.1 0.1 0.1 0.1l0.1-0.1 0.3-0.1h0.1l0.3-0.2 0.4-0.3 0.4-0.4 0.3-0.5 0.4-0.5 0.6-1.2 0.2-0.4 0.3-0.9 0.4-1.3 0.2-1.2v-0.5l-0.4 0.2-1.1 0.9-0.5 0.4-0.2 0.1-0.1 0.2-0.4 0.8-0.7 1.3-0.4 0.9-0.5 1.1-0.2 0.7v0.3 0.2zm-1.4 6l0.3-0.1 0.1-0.1 0.1-0.1 0.1-0.1h0.1l0.1-0.2 0.4-0.7 0.6-1.1 0.1-0.2 0.4-0.6h-0.1l-0.1-0.1h-0.1-0.1-0.1-0.1l-0.2 0.1-0.1 0.1-0.2 0.1-0.1 0.2-0.2 0.1v0.1l-0.2 0.4-0.5 1.2-0.1 0.6zm-0.7 3.2h0.9v-2.2l-0.2-0.3-0.4 0.8-0.1 0.6zm5.9 4.5v-0.1h-0.1l-0.1-0.1-0.1-0.1-0.4-0.2-0.9-0.4-3.6-1.2-0.9-0.1-0.2-0.1-0.1 2.6v0.5 0.5l0.1 0.5 0.1 0.3 0.1 0.2 0.1 0.2 0.2 0.2 0.1 0.1 0.1 0.1h0.1l0.1 0.1h0.2 0.1 0.1 0.1l0.3-0.1 0.6-0.2 2.9-1.7 0.2-0.2 0.3-0.2 0.3-0.2 0.1-0.1 0.1-0.1v-0.1h0.1v-0.1zm2.4-4.1l-0.2 0.1h-0.2l-0.3 0.2-0.3 0.2h-0.1l-0.7 0.6v0.2l0.1 0.1 0.1 0.1h0.1v0.1h0.1 0.1 0.1 0.1 0.1l0.1-0.1h0.1l0.1-0.1 0.1-0.1 0.1-0.2 0.3-0.5v-0.1l0.1-0.3zm25.7-5.4v0.1 0.1 0.1l-0.1 0.2-0.3 0.3-0.5 0.6-0.2 0.2-2.6 2.7-0.4 0.5-0.1 0.2-0.1 0.2v0.1 0.1 0.1 0.1 0.1l0.1 0.1 0.2 0.2 0.3 0.2 0.8 0.5 0.3 0.3 0.1 0.1 0.3 0.3 0.2 0.4 0.2 0.4 0.3 0.8 0.1 0.9v0.4l0.1 0.4v1l-0.1 0.5v0.3l-0.1 0.2-0.1 0.3-0.1 0.3v0.1l-0.1 0.2-0.1 0.1h-0.2v0.1h-0.1l-0.1 0.1h-0.2-0.1-0.1l-0.1-0.1h-0.2l-0.2-0.1-0.4-0.3-0.7-0.5-0.2-0.1-0.1-0.1-0.1-0.2h-0.1v-0.1l-0.2-0.3-0.1-0.3-0.1-0.5-0.1-0.5v-0.5-0.5l0.1-0.9 0.5-1.7-1 0.2-0.4 0.1-0.5 0.3-0.3 0.1-0.3 0.2-0.3 0.3-0.2 0.2-0.5 0.7-0.2 0.3-0.2 0.1-0.2 0.1-0.2 0.1-0.3 0.1-0.1 0.1h-0.1-0.1-0.3l-0.1-0.1-0.4-0.1-0.4-0.2-0.4-0.3-0.4-0.3-0.3-0.3-0.2-0.2-0.1-0.2-0.1-0.2v-0.2l-0.1-0.2 0.1-0.3v-0.7l0.1-0.1 0.1-0.2 0.5-0.7 0.4-0.5 3.3-3.6 0.4-0.3 0.9-1v-0.1-0.1-0.1-0.1h-0.1v-0.1h-0.1l-0.1-0.1-0.1-0.1-0.3-0.1-1.4-0.5h-0.2l-0.6-0.3-0.3-0.2-0.2-0.1-0.2-0.2-0.2-0.3-0.2-0.2-0.1-0.2-0.1-0.3v-0.1-0.1-0.1-0.1-0.1l0.1-0.1v-0.1l0.1-0.2 0.2-0.2 0.3-0.5 1.9-1.8 1.2-1.5 1.1-1.2 2.5-3.4 1.5-2.4 0.6-0.7 0.3-0.4 0.3-0.1 0.2-0.2 0.4-0.2 0.3-0.1 0.3-0.1 0.4-0.1h0.2 0.2 0.1l0.1 0.1h0.1l0.1 0.1 0.1 0.1 0.1 0.1 0.2 0.2 0.3 0.5 1.1 2.5 0.2 0.9 0.1 0.6v1.3 0.4l-0.1 0.9-0.3 0.9-0.2 0.3v0.1l-0.3 0.5-0.2 0.2-0.1 0.2-0.2 0.1-0.4 0.2-0.3 0.2-0.7 0.2-2.3 0.8-1.2 0.5-0.6 0.4-0.3 0.2-0.2 0.2-0.1 0.2-0.1 0.1-0.1 0.2-0.1 0.2-0.1 0.2v0.1 0.1 0.1h0.1v0.1h0.1v0.1h0.1 0.1l0.3 0.1 0.5 0.1h0.2 0.1l0.3 0.2 0.9 0.6 0.5 0.3 0.3 0.2 0.1 0.1 0.2 0.3 0.2 0.2v0.1l0.1 0.1v0.1zm-47 1.3l-1.6 4.5-0.6 1.3v0.1h-0.1v0.1h-0.1-0.1-0.1-0.2l-0.2-0.1-0.2-0.1-0.2-0.2-0.2-0.3-0.1-0.2-0.2-0.3-0.1-0.2v-0.1-0.1-0.1-0.1l0.1-0.1 0.1-0.3 0.4-0.6 1.2-1.6 0.9-1.6 0.4-0.7 0.6-1.5 1-2.2 2-4.5 1.1-2.4 1.2-2.4 0.9-1.3 0.4-0.4 0.2-0.2 0.2-0.1h0.1l0.1-0.1h0.1 0.1 0.1l0.1 0.1h0.2l0.3 0.2 0.5 0.4 0.5 0.5 0.2 0.2 0.2 0.3 0.1 0.2 0.1 0.1v0.2l0.1 0.1v0.2 0.1 0.1l-0.1 0.1v0.1h-0.1l-0.1 0.1-0.2 0.2-0.6 0.5-2.4 1.7-0.6 0.4-0.2 0.2-0.7 0.9v0.1l-1.3 2-1.1 2.4-1 2.2-1.1 2.2zm-11.7 0v2.5 1.9l-0.1 2.1v1.7l-0.1 0.5-0.1 0.2v0.1 0.2l-0.3 0.5-0.3 0.5-0.6 0.9v0.1l-0.2 0.2-0.4 0.4-1.2 1.1-0.5 0.5-0.3 0.3-0.5 0.3-0.3 0.2h-0.1l-0.1 0.1h-0.1-0.1-0.1v-0.1h-0.1l-0.2-0.1-0.4-0.2-0.7-0.5-1-0.6-0.5-0.3-0.2-0.1-1.2-0.4-1.3-0.3-3.7-0.6-1.5-0.2-1.6-0.3-1-0.1h-0.5-0.1l-0.1 0.1h-0.1v0.1 0.1l0.1 0.3v0.2l0.5 1.5 0.1 0.4v0.2l-1.1-0.1h-0.4l-0.2-0.1-0.3-0.1h-0.1l-0.1-0.1-0.1-0.1-0.1-0.1-0.1-0.2-0.1-0.2-0.2-0.4-0.2-0.8v-0.1l-0.4-2v-0.2l-0.3-4.5-0.1-1.6 0.2-2.8 0.2-3.8 0.1-0.7 0.3-1.8 0.3-1 0.3-0.8 0.2-0.4 0.2-0.4h0.1v-0.1l0.2-0.1v-0.1l0.2-0.1h0.1l0.1-0.1v0.5l-0.3 3.2-0.1 1.2-0.5 4.5v1l-0.1 3.4v0.3 0.1l0.1 0.2v0.1l0.1 0.1v0.1l0.1 0.1 0.4 0.4 0.2 0.2 0.1 0.3 0.1 0.2v0.2l0.1 0.4v0.7 1.3l1.2-0.2h0.3l0.7-0.1h0.2 0.3l0.3-0.1 0.3-0.2 0.3-0.2 0.2-0.2 0.7-0.6 2.9-3.1 1.1-1.3 0.2-0.2v-0.1l-2.2 1.2-0.8 0.4-0.8 0.6-0.9 0.4-0.5 0.2-0.4 0.1-0.5 0.1v-0.8l0.1-0.5v-0.1-0.2l0.3-0.6 0.5-1 1-1.7 0.6-0.9 0.5-0.8-1.3 0.3 0.2-1.7 0.1-0.1 0.2-0.5 0.7-1.7 0.1-0.2 0.2-0.6 0.1-0.2v-0.1-0.1-0.1l-0.1-0.1h-0.1-0.1-0.2-0.3l-0.7 0.1h-0.3-0.1-0.1-0.1l-0.1-0.1h-0.1v-0.1-0.1-0.3-0.1-0.1l0.1-0.1 0.1-0.1 0.5-0.6 0.1-0.1 0.1-0.1v-0.1-0.1l0.1-0.1v-0.1-0.3l-0.2-0.6-0.2-1.1-0.4-0.9-0.2-0.6-0.1-0.1v0.1 0.1 0.2 0.3l0.2 1.1v0.2 0.1 0.1 0.1l-0.1 0.1-0.1 0.1v0.1h-0.1l-0.1 0.1h-0.1-0.1-0.1-0.1-0.1v-0.1h-0.2l-0.1-0.1-0.2-0.1-0.1-0.1-0.2-0.1-0.1-0.2-0.1-0.1-0.1-0.2v-0.2l-0.1-0.1v-0.2-0.1-0.2l0.2-0.4 0.1-0.3 0.3-0.5 0.3-0.5 0.3-0.4 0.7-0.6 0.6-0.6 1-0.6 1.9-1 1.2-0.5 3.4-0.9 1-0.2h0.5 0.4 0.2l0.5 0.2 0.4 0.2 0.5 0.3 1 0.9 0.6 0.8 0.7 0.8 0.6 1.2 0.6 1.2 0.4 1.4 0.3 1.3 0.2 0.8 0.4 2.2v1.4 2.3zm-1.5 1.3v-1.3l-0.1-2.3-0.1-2.2v-0.2l-0.5-2.9-0.4-1.4-0.3-1.4-0.5-1.6-0.3-0.8-0.2-0.2-0.3-0.4-0.7-0.8-0.8-0.7-0.5-0.4-0.2-0.1-0.2-0.1h-0.1l-1.5-0.1h-0.2l-0.7 0.1-1.7 0.5-1.9 0.4-1 0.3-0.7 0.3-0.2 0.2-0.4 0.3-0.3 0.2-0.2 0.3-0.1 0.2-0.1 0.2v0.2l-0.1 0.3v0.2 0.3h0.1v0.2l0.1 0.1 0.2 0.4 0.9 1.3 0.2 0.3 0.1 0.2h0.2l0.2-0.1 0.3-0.1 0.9-0.3 0.3-0.2h0.1 0.1 0.3 0.3l0.5 0.1 0.3 0.1h0.1 0.1l0.1-0.1 0.1-0.1 0.1-0.1 0.3-0.5 0.1-0.1 0.1-0.1 0.1-0.1 0.1-0.1h0.1l0.2-0.1h0.1l1.5 0.4 0.6 0.3 0.2 0.1 0.3 0.2 0.2 0.2 0.2 0.2 0.1 0.2v0.1l0.1 0.2v0.1l0.1 0.2v0.3l-0.1 0.2-0.1 0.3v0.2l-0.2 0.2-0.1 0.2-0.2 0.2-0.1 0.2-0.2 0.1-0.3 0.2-0.2 0.1-0.2 0.1h-0.3l-0.2 0.1h-0.2-0.2l-0.2-0.1h-0.2l-0.2-0.1-0.1-0.1-0.2-0.1-0.1-0.1-0.1-0.2-0.1-0.2-0.2-0.4-0.3-0.7-0.1-0.3-0.1-0.1-0.1-0.1-1 1.6-0.6 1-0.2 0.6-0.1 0.3v0.1 0.1l0.5 0.6 0.6 0.6 1.1 1.2 0.3 0.4 0.1 0.2 0.1 0.3 0.2 0.4 0.1 0.3v0.2 0.3 0.4l-0.1 0.2v0.2l-0.2 0.4h0.2l0.2-0.1 0.2-0.1 0.1-0.2 0.2-0.1 0.1-0.1 0.1-0.1 0.4-0.6 0.5-0.8 0.4-0.8 0.4-0.9 0.3-0.4 0.1-0.1v-0.1h0.1v-0.1h0.1 0.1 0.1 0.1l0.1 0.1 0.1 0.1 0.1 0.1 0.1 0.2v0.1l0.1 0.1v0.2 0.2 0.1 0.1 0.1l-0.1 0.2h-0.1l-0.1 0.2-0.3 0.6-1.2 1.5-1.2 1.4-0.6 0.8-0.1 0.3-0.1 0.2v0.1 0.1 0.1l0.1 0.1 0.3 0.3 1 1 0.3 0.3h0.1l0.4-0.3 0.2-0.1 0.3-0.4 0.3-0.4 0.2-0.4 0.2-0.4 0.6-2.1 0.1-0.4 0.1-0.1 0.1-0.1 0.1-0.2v0.2l0.1 0.8-0.1 0.7-0.1 1.1-0.2 0.5-0.2 0.7-0.4 0.6-0.3 0.7-0.2 0.7-0.1 0.3 0.3-0.1h0.2 0.2 0.2 0.1 0.1l0.1 0.1h0.1l0.1 0.1h0.1l0.1 0.1v0.1l0.1 0.1 0.1 0.2v0.2 0.2 0.3 0.2l-0.1 0.3-0.1 0.2-0.2 0.3-0.2 0.2-0.2 0.2-0.1 0.1-0.1 0.1-0.2 0.1h-0.2l-0.3 0.1h-0.2l-2.1-0.1h-1.2l-0.5 0.1h-0.2l-0.2 0.1h-0.1l-0.1 0.1h-0.1v0.1l-0.1 0.1v0.1l0.1 0.1 0.1 0.1 0.1 0.1h0.3l0.3 0.1 0.7 0.1h1.7 0.2l0.5 0.1 1.8 0.4 0.6 0.1h0.2l0.9-0.5 1-0.6v-0.1l0.1-0.1 0.1-0.2 0.1-0.4 0.2-1.8 0.3-2.7zm-11.5-8.2l0.1 0.2 0.3-0.8h-0.1l-0.1 0.1-0.1 0.1v0.1h-0.1v0.1 0.1zm1.7 6.7h0.1l0.1 0.1h0.2v-0.1h0.1 0.1v-0.1h0.1v-0.1-0.1l-0.1-0.3-0.2-1v-0.2h-0.1l-0.3-0.2-0.1-0.2v0.2l-0.2 0.6v0.1 0.3 0.4 0.1 0.1l0.1 0.1v0.1l0.1 0.1 0.1 0.1zm0 8.1l2.1-0.7 1.8-0.8-0.1-0.2-0.3-0.5-0.7-0.8-0.6-0.5-0.2-0.2-0.4-0.2-0.1-0.1-0.2-0.1h-0.1-0.1l-0.1-0.1-0.1 0.1h-0.1-0.1l-0.1 0.1-0.5 0.4-0.2 0.1-2.8 2.5-0.8 0.8-0.2 0.3-0.1 0.1v0.1h-0.1v0.1h0.1v0.1h0.1 0.1v0.1h0.2 0.2 0.4l1-0.2zm-0.6-7.7l-0.1-0.1v-0.1l-0.1-0.1v-0.1h-0.1l-0.1-0.1-0.1-0.1h-0.1l-0.2-0.1h-0.1-0.2-0.1v0.1h-0.1l-0.3 0.3v0.1l-1.2 1.5-0.5 0.7-0.1 0.1 0.1 0.4h0.1 0.1 0.2l0.2-0.1 0.3-0.1 0.8-0.4 0.7-0.5 0.5-0.4 0.1-0.2 0.1-0.2 0.1-0.1v-0.2l0.1-0.1zm88.2-3.6v0.1 0.1 0.1h-0.1v0.1l-0.1 0.1-0.1 0.1-0.2 0.1-0.2 0.1-0.3 0.1-0.5 0.1-0.8 0.2-3.6 0.5-1 0.3-0.4 0.2-0.3 0.2-0.3 0.2-0.4 0.3-0.2 0.1-0.1 0.2 0.4 0.2 0.2 0.1 0.2 0.1 0.1 0.1 0.1 0.1v0.1h0.1v0.1l0.1 0.1v0.2 0.1 0.2 0.2l-0.1 0.5v0.6 0.3 0.8l0.1 0.9 0.1 1 0.7 3.4 0.1 0.6 0.2 1.3v0.4 0.2l-0.1 0.6v0.6l-0.2 0.6-0.1 0.2v0.2l-0.2 0.4-0.4 0.5-0.5 0.6-0.3 0.1-0.9 0.6-0.2 0.1h-0.1-0.1l-0.1 0.1v-0.1h-0.1l-0.1-0.1-0.3-0.2-0.5-0.6-1.3-1.6-0.5-0.7-0.5-0.5-0.2-0.2-1.2-0.8-1.6-1.1-0.6-0.5-0.2-0.2-0.2-0.2v-0.1h0.1 0.2l0.2 0.1 0.6 0.2 3.3 1.2 1 0.3h0.4 0.3 0.1l0.1-0.1h0.1l0.1-0.1 0.1-0.1v-0.1l0.2-0.4 0.3-0.8 0.1-0.4 0.1-0.1 0.1-1.2-0.1-1.7-0.5-3.4-0.2-1.5-0.1-0.3-0.1-0.1v-0.1h-0.1-0.1l-0.1 0.1-0.4 0.1-0.9 0.4-3.3 1.7-0.5 0.2h-0.2l-0.1 0.1h-0.1v-0.1h-0.1-0.1l-0.1-0.1-0.1-0.1v-0.1l-0.1-0.1v-0.1l-0.1-0.2v-0.1-0.1-0.1l0.1-0.2v-0.1l0.2-0.2 0.1-0.1 0.2-0.3 0.3-0.2 0.8-0.4 1.1-0.5 1-0.4 4.2-1.8 1.4-0.6 2.7-0.9 2.2-0.4 2.5-0.2v0.4zm-13.9-3.2l0.1-0.1 0.1-0.1h0.2l0.3-0.1 2-0.5 1.2-0.4 2.4-0.9 0.3-0.1 1.6-0.5 1.6-0.3 1.7-0.1-0.5 0.9h-0.1l-0.3 0.5-0.3 0.4-0.2 0.2h-0.1v0.1h-0.1l-0.2 0.1-0.3 0.1-1 0.3-3.5 0.8-1 0.3-0.4 0.1-0.4 0.3-1 0.8-0.5 0.3-0.3 0.1-0.2 0.1h-0.1-0.1-0.1-0.1l-0.1-0.1h-0.1l-0.1-0.1-0.1-0.1-0.1-0.1-0.1-0.3-0.1-0.3-0.1-0.4v-0.3-0.3-0.1h0.1v-0.1zm-98.1-4.7l5.1 0.3v0.7 0.5l-0.1 0.3-0.1 0.6-0.2 0.5-0.2 0.5-0.3 0.4-0.6 0.9-1.6 2.2-0.3 0.5-0.9 1.7-0.1 0.4h0.1l0.1 0.1h0.1v0.1h0.1v0.1 0.1 0.1 0.1l-0.1 0.4-0.1 0.6-0.1 0.2v0.1l-0.1 0.2v0.2l-0.1 0.1-0.1 0.1-0.1 0.1-0.2 0.1-0.1 0.1-0.3 0.1-0.3 0.1-0.2 0.2-0.1 0.1-0.1 0.1-0.2 0.2-0.3 1-0.4 1.7-1 4.5-0.2 0.9-0.2 1.3-0.2 1.1v1.1l-0.1 1.8-0.1 0.5v0.1h-0.1v0.1l-0.1 0.1-0.4 0.3-1 0.7-1.1 0.6-0.4 0.2-0.2 0.1h-0.2-0.1-0.1-0.1-0.1v-0.1l-0.1-0.1v-0.2l-0.2-0.4-0.3-1.1-0.5-2.6-0.4-2.2-0.1-0.3-0.2-1.9-0.5-3.8-0.7 0.4-0.4 0.1-0.2 0.1h-0.2-0.2-0.4l-0.4-0.1-0.3-0.1-0.4-0.1-0.4-0.2-0.5-0.3-1-0.8-1-1.1-0.9-1.2-0.8-1.4-0.2-0.5-0.4-0.8-0.3-1.2-0.1-0.5-0.1-0.7 0.1-1.1v-0.1-0.7l0.1-0.1v-0.2-0.1h0.1v-0.1h0.1v-0.1h0.1 0.1 0.1 0.1 0.1l0.1 0.1 0.1 0.1 0.3 0.2 0.7 0.6 0.3 0.3 1.1 1.1 0.3 0.2 0.1 0.1 0.2 0.1h0.2 0.1 0.1l0.1-0.1 0.2-0.1 0.7-0.6 0.2-0.1 0.1-0.1 0.7-0.4 1.6-0.8 0.4-0.3 0.3-0.1 0.3-0.3 0.1-0.2 0.2-0.2 0.1-0.2 0.2-0.5 0.1-0.3 0.1-0.8 0.1-0.9v-0.9l-0.1-3.5 0.2-1.5 0.5-0.9 0.3-0.4 0.2-0.3 0.1-0.1 0.1-0.1h0.1 0.1 0.1 0.1 0.1l0.2 0.1 0.2 0.1 0.4 0.3 0.8 0.5 1.2 1.3 0.6 0.6 0.5 0.9 0.3 0.4 0.1 0.2 0.2 0.2 0.2 0.1 0.2 0.1 0.4 0.1 0.5 0.2zm-9 10.4l-0.1-0.6v-0.3l-0.1-0.4-0.1-0.1-0.1-0.2-0.1-0.1h-0.1v-0.1h-0.1-0.1l-0.2 0.1-0.5 0.3-0.8 0.5-0.6 0.6-0.2 0.2-0.1 0.1-0.1 0.1v0.1 0.1 0.1 0.2l0.1 0.1v0.2h0.1l0.1 0.4 0.3 0.5 0.4 0.4 0.3 0.4 0.4 0.4 0.3 0.2 0.1 0.1 0.2 0.1h0.1 0.1 0.1v-0.1l0.1-0.1 0.1-0.1v-0.1l0.1-0.2 0.2-0.6 0.2-1v-0.3zm1.3 12.1h0.1 0.1v-0.1h0.1l0.1-0.1-0.2-0.1h-0.1-0.1v-0.1h-0.1l-0.1 0.1h-0.1v0.1h-0.1v0.1 0.1zm0.9 4.2l-0.1-0.2v-0.5l-0.2-0.6-0.1-0.3-0.1-0.2-0.1-0.1-0.1-0.1h-0.1v-0.1h-0.1v0.1l0.4 2zm1.9-0.6v-0.6l-0.1-0.8v-0.3l-0.1-1.3v-0.6-0.2l-0.2-1.1v-0.5-0.1-0.1h-0.1v-0.1h-0.1v-0.1h-0.1-0.1-0.1-0.2l0.1 0.4 0.1 0.3v0.3 0.3l-0.1 0.4-0.1 0.5v0.3l-0.2 0.8v0.4l-0.1 0.3 0.1 0.3v0.1 0.3l0.2 0.5 0.2 0.4 0.7 0.9 0.1-0.1v-0.1l0.1-0.1v-0.1zm5.5-23.7l-0.9 0.2-0.4 0.2-0.6 0.3-0.3 0.2-0.2 0.2-0.2 0.1v0.2l-0.1 0.1v0.1l-0.1 0.4-0.1 0.2v0.5 0.5l0.1 1.2 0.2 1.1v0.4h0.1l0.1-0.1 0.2-0.1 0.4-0.3 0.8-0.9 1.2-1.6 1-1.7 0.4-0.9 0.1-0.2v-0.1h-0.1l-0.8-0.2-0.2 0.1h-0.5zm56.1-1.3l0.3 0.4 0.3 0.4 0.1 0.2 0.1 0.2v0.1l0.1 0.2v0.1 0.1 0.1l-0.1 0.1v0.1l-0.1 0.1-0.1 0.1-0.2 0.1-0.4 0.3-1.7 0.7-0.4 0.2h-0.1-0.1l-0.3-0.3v-0.1-0.1l-0.1-0.3v-0.9-0.5l0.1-0.4v-0.5l0.1-0.2v-0.1-0.1h0.1v-0.1h0.1l0.2-0.1 0.3-0.1h0.3l0.3-0.1 0.8 0.1 0.1 0.1z"/>
		</g>
	</g>
</svg>